<?xml version="1.0" encoding="UTF-8"?>
<svg xmlns="http://www.w3.org/2000/svg" version="1.1" viewBox="0 0 100 22.6">
  <defs>
    <style>
      .cls-1 {
        fill: #dc000c;
        fill-rule: evenodd;
      }
    </style>
  </defs>
  <!-- Generator: Adobe Illustrator 28.6.0, SVG Export Plug-In . SVG Version: 1.2.0 Build 709)  -->
  <g>
    <g id="Layer_1">
      <g id="Layer_1-2" data-name="Layer_1">
        <g>
          <path class="cls-1" d="M8.8,15.4c1.6,2.6,4.4,4.2,7.5,4.2,4.6,0,7.2-4,7.2-4l.3,1.1c-2.1,2.8-6,4.5-10.3,4.5s-9.2-2.4-11.2-5.7c-.8-1.3-1.1-2.7-1.2-4.2C1.2,5.7,6.8,1.2,13.6,1.2s8.7,2.1,10.7,5l-8.1,4.8,4.6-7.1c-1.4-.9-2.9-1.5-4.6-1.6-4.8,0-8.6,3.9-8.6,8.6s.4,3,1.2,4.3"/>
          <path class="cls-1" d="M30.1,15.4v.5c0,1.8,1.5,3.2,3.2,3.2s3.2-1.5,3.2-3.2v-.5c-.3-1.8-1.9-3-3.7-2.7-1.4.2-2.5,1.3-2.7,2.7M42.1,15.4l1.6,5.4h-5.7l-1.1-3.7c-.7,2.1-3.3,3.7-6.2,3.7s-6.5-2.3-6.5-5,0-.3,0-.4c.3-2.6,3-4.6,6.4-4.6s3.5.6,4.8,1.7l-1.5-5.1h-6.5c1.9-.9,3.9-1.7,5.9-2.4,4.8-1.7,6.3,2.4,6.3,2.4l2.4,8.1h0Z"/>
          <path class="cls-1" d="M59.9,15.4v5.4h-5.8v-11.9c0-.9-.7-1.6-1.6-1.6s-1.2.4-1.5,1v12.5h-5.7V7.3h-3.3s4.6-2.8,6.2-2.8,2.7,1.2,2.8,2.7c2.2-1.2,4.5-2.7,6-2.7s2.9,1.3,2.9,2.8c0,0,0,8.1,0,8.1Z"/>
          <path class="cls-1" d="M68.6,15.4l.8,2.7c0,1.2,1,2.1,2.1,2.1s2.1-1,2.1-2.1h0v-.2l-.7-2.4-2.4-8.3c0-1.1-1-1.9-2.1-1.9s-2.1.9-2.3,2.1l2.4,8.1h0ZM77.9,15.4c-1.4,4.4-6.2,6.8-10.6,5.3-4.4-1.4-6.8-6.2-5.3-10.6,1.4-4.4,6.2-6.8,10.6-5.3,3.4,1.1,5.8,4.3,5.8,8s0,1.8-.4,2.6"/>
          <path class="cls-1" d="M87.3,15.4v5.4h-5.7V7.3h-3.2s4.5-2.8,6.1-2.8,2.7,1.2,2.8,2.7c2.2-1.2,4.5-2.7,6-2.7s2.9,1.3,2.9,2.8v13.5h-5.8v-11.9c0-.9-.7-1.6-1.6-1.6s-1.2.4-1.5,1c0,0,0,7.1,0,7.1Z"/>
        </g>
      </g>
    </g>
  </g>
</svg>