<svg width="30" height="30" viewBox="0 0 30 30" fill="none" xmlns="http://www.w3.org/2000/svg">
<g clip-path="url(#clip0_3_2534)">
<g clip-path="url(#clip1_3_2534)">
<g clip-path="url(#clip2_3_2534)">
<path d="M15 30C23.2843 30 30 23.2843 30 15C30 6.71573 23.2843 0 15 0C6.71573 0 0 6.71573 0 15C0 23.2843 6.71573 30 15 30Z" fill="black"/>
<path d="M19.6973 8.26929H21.9463L17.033 13.8849L22.8132 21.5266H18.2873L14.7425 16.892L10.6864 21.5266H8.43611L13.6914 15.52L8.14648 8.26929H12.7872L15.9914 12.5055L19.6973 8.26929ZM18.908 20.1805H20.1542L12.1101 9.54471H10.7728L18.908 20.1805Z" fill="white"/>
</g>
</g>
</g>
<defs>
<clipPath id="clip0_3_2534">
<rect width="30" height="30" fill="white"/>
</clipPath>
<clipPath id="clip1_3_2534">
<rect width="30" height="30" fill="white"/>
</clipPath>
<clipPath id="clip2_3_2534">
<rect width="30" height="30" fill="white"/>
</clipPath>
</defs>
</svg>
