<svg width="30" height="30" viewBox="0 0 30 30" fill="none" xmlns="http://www.w3.org/2000/svg">
<g clip-path="url(#clip0_3_2540)">
<g clip-path="url(#clip1_3_2540)">
<g clip-path="url(#clip2_3_2540)">
<path d="M15 30C23.2843 30 30 23.2843 30 15C30 6.71573 23.2843 0 15 0C6.71573 0 0 6.71573 0 15C0 23.2843 6.71573 30 15 30Z" fill="black"/>
<path d="M18.0382 7H15.4732V17.8985C15.4732 19.1971 14.4867 20.2638 13.2591 20.2638C12.0314 20.2638 11.0449 19.1971 11.0449 17.8985C11.0449 16.6232 12.0095 15.5797 13.1933 15.5333V12.7971C10.5845 12.8435 8.47998 15.0928 8.47998 17.8985C8.47998 20.7276 10.6284 23 13.281 23C15.9336 23 18.082 20.7044 18.082 17.8985V12.3101C19.0466 13.0522 20.2304 13.4928 21.48 13.516V10.7797C19.5508 10.7101 18.0382 9.04058 18.0382 7Z" fill="white"/>
</g>
</g>
</g>
<defs>
<clipPath id="clip0_3_2540">
<rect width="30" height="30" fill="white"/>
</clipPath>
<clipPath id="clip1_3_2540">
<rect width="30" height="30" fill="white"/>
</clipPath>
<clipPath id="clip2_3_2540">
<rect width="30" height="30" fill="white"/>
</clipPath>
</defs>
</svg>
